<?xml version='1.0' encoding='utf-8'?>
<svg xmlns="http://www.w3.org/2000/svg" enable-background="new 0 0 1920 500" version="1.1" viewBox="0 0 1920 500"> <style type="text/css"> .st0{fill:#C9503E;} .st1{fill:#A54339;} .st2{opacity:0.8;fill:#FFFFFF;} .st3{fill:#E7843D;} .st4{fill:#C06E2F;} .st5{fill:#656162;} .st6{fill:#44494D;} .st7{fill:#7B353A;} .st8{fill:#4E2729;} .st9{fill:#8A5A59;} .st10{fill:#535349;} .st11{fill:#FFFFFF;} .st12{fill:#D6B02F;} .st13{fill:#B69439;} .st14{fill:#95B91E;} .st15{fill:#83A629;} .st16{fill:#27AC9A;} .st17{fill:#2E8878;} .st18{fill:#4398D2;} .st19{fill:#1A8DC3;} .st20{fill:#50699B;} .st21{fill:#3A4C66;} .st22{opacity:0.5;fill:#FFFFFF;} .st23{fill:#2E5293;} </style> <rect class="st0" transform="matrix(.9994 .0349 -.0349 .9994 10.353 -15.328)" x="412.2" y="117.6" width="64.1" height="342.5"/> <polygon class="st1" points="534.4 440.2 470.3 461.2 482.3 118.9 546.4 149.6"/> <rect class="st2" transform="matrix(.9994 .0349 -.0349 .9994 4.9546 -15.611)" x="417.6" y="131.9" width="64.1" height="4.5"/> <rect class="st2" transform="matrix(.9994 .0349 -.0349 .9994 5.298 -15.593)" x="417.3" y="141.7" width="64.1" height="4.5"/> <rect class="st2" transform="matrix(.9994 .0349 -.0349 .9994 5.6415 -15.575)" x="416.9" y="151.6" width="64.1" height="4.5"/> <rect class="st3" transform="matrix(.9962 -.087156 .087156 .9962 -24.272 47.751)" x="505.3" y="145" width="58.7" height="313.7"/> <polygon class="st4" points="633.6 429.3 577.7 455.5 550.3 143 612 163.8"/> <rect class="st2" transform="matrix(.9962 -.087156 .087156 .9962 -12.003 46.136)" x="493" y="158.5" width="58.7" height="4.1"/> <rect class="st2" transform="matrix(.9962 -.087156 .087156 .9962 -12.784 46.239)" x="493.8" y="167.5" width="58.7" height="4.1"/> <rect class="st2" transform="matrix(.9962 -.087156 .087156 .9962 -13.564 46.342)" x="494.6" y="176.4" width="58.7" height="4.1"/> <rect class="st5" transform="matrix(.9994 -.034899 .034899 .9994 -9.0988 22.276)" x="601.1" y="82.4" width="64.8" height="378.8"/> <polygon class="st6" points="737.3 420.4 672.6 460 659.3 81.5 724.1 122"/> <polygon class="st7" points="750 461 686.9 459.8 694.3 35.2 757.4 36.4"/> <polygon class="st8" points="842.1 403.8 750 461 757.4 36.4 846.7 144.8"/> <rect class="st9" transform="matrix(.9998 .017452 -.017452 .9998 .9131 -12.658)" x="694.2" y="35.8" width="63" height="20.5"/> <rect class="st9" transform="matrix(.9998 .017452 -.017452 .9998 1.3592 -12.646)" x="693.7" y="66.4" width="63" height="10.2"/> <rect class="st10" transform="matrix(.9994 -.0349 .0349 .9994 -7.6285 22.199)" x="599.7" y="208.5" width="64.8" height="42.3"/> <rect class="st11" transform="matrix(.9994 -.0349 .0349 .9994 -7.6285 22.199)" x="599.7" y="219" width="64.8" height="21.3"/> <rect class="st5" transform="matrix(.9994 -.034899 .034899 .9994 -9.0988 22.276)" x="601.1" y="82.4" width="64.8" height="378.8"/> <polygon class="st6" points="737.3 420.4 672.6 460 659.3 81.5 724.1 122"/> <polygon class="st7" points="750 461 686.9 459.8 694.3 35.2 757.4 36.4"/> <polygon class="st8" points="842.1 403.8 750 461 757.4 36.4 846.7 144.8"/> <rect class="st9" transform="matrix(.9998 .017452 -.017452 .9998 .9131 -12.658)" x="694.2" y="35.8" width="63" height="20.5"/> <rect class="st9" transform="matrix(.9998 .017452 -.017452 .9998 1.3592 -12.646)" x="693.7" y="66.4" width="63" height="10.2"/> <rect class="st10" transform="matrix(.9994 -.0349 .0349 .9994 -7.6285 22.199)" x="599.7" y="208.5" width="64.8" height="42.3"/> <rect class="st11" transform="matrix(.9994 -.0349 .0349 .9994 -7.6285 22.199)" x="599.7" y="219" width="64.8" height="21.3"/> <rect class="st12" transform="matrix(.9962 -.087156 .087156 .9962 -21.778 73.663)" x="800.6" y="115" width="64.1" height="342.5"/> <polygon class="st13" points="940.6 425.4 879.6 454 849.7 112.8 917.1 135.5"/> <rect class="st2" transform="matrix(.9962 -.087156 .087156 .9962 -8.6704 71.938)" x="787.4" y="129.7" width="64.1" height="11.2"/> <rect class="st2" transform="matrix(.9962 -.087156 .087156 .9962 -9.9466 72.106)" x="788.7" y="144.4" width="64.1" height="11.2"/> <rect class="st14" x="901.6" y="118.5" width="51.4" height="342.5"/> <polygon class="st15" points="1016.3 437.8 953 461 953 118.5 1018.1 146.9"/> <rect class="st11" x="901.6" y="132.6" width="51.4" height="11.2"/> <rect class="st11" x="901.6" y="147.3" width="51.4" height="11.2"/> <rect class="st14" x="901.6" y="118.5" width="51.4" height="342.5"/> <polygon class="st15" points="1016.3 437.8 953 461 953 118.5 1018.1 146.9"/> <rect class="st2" x="901.6" y="130.4" width="51.4" height="10.6"/> <rect class="st2" x="901.6" y="145.2" width="51.4" height="10.6"/> <rect class="st16" transform="matrix(.9998 -.017452 .017452 .9998 -4.9117 17.723)" x="979.3" y="119" width="67.4" height="342.5"/> <polygon class="st17" points="1112.6 436.6 1049.7 460.9 1043.7 118.5 1109.3 145.8"/> <rect class="st2" transform="matrix(.9998 -.017735 .017735 .9998 -2.2849 17.939)" x="976.6" y="133.1" width="67.4" height="9.4"/> <polygon class="st2" points="1044.4 157.8 977 158.8 976.8 149.2 1044.2 148.2"/> <rect class="st18" transform="matrix(.9998 .017453 -.017453 .9998 4.8607 -19.076)" x="1069.7" y="77.5" width="51.4" height="382.9"/> <polygon class="st19" points="1181.4 436 1117.7 460.8 1124.4 78 1188.9 110.9"/> <rect class="st5" transform="matrix(.9994 -.034899 .034899 .9994 -9.7277 41.772)" x="1163.6" y="135.2" width="56.3" height="328.7"/> <polygon class="st6" points="1281.8 428.5 1225.6 462.9 1214.1 134.4 1270.3 169.5"/> <polygon class="st7" points="1292.7 463.8 1238 462.7 1244.4 94.2 1299.1 95.3"/> <polygon class="st8" points="1372.7 414.2 1292.7 463.8 1299.1 95.3 1376.6 189.4"/> <rect class="st9" transform="matrix(.9998 .017452 -.017452 .9998 2.0016 -22.177)" x="1244.3" y="94.7" width="54.7" height="17.7"/> <rect class="st9" transform="matrix(.9998 .017452 -.017452 .9998 2.3887 -22.167)" x="1243.9" y="121.3" width="54.7" height="8.9"/> <rect class="st10" transform="matrix(.9994 -.0349 .0349 .9994 -8.4518 41.705)" x="1162.3" y="244.6" width="56.3" height="36.7"/> <rect class="st11" transform="matrix(.9994 -.0349 .0349 .9994 -8.4518 41.705)" x="1162.3" y="253.7" width="56.3" height="18.5"/> <rect class="st5" transform="matrix(.9994 -.034899 .034899 .9994 -9.7277 41.772)" x="1163.6" y="135.2" width="56.3" height="328.7"/> <polygon class="st6" points="1281.8 428.5 1225.6 462.9 1214.1 134.4 1270.3 169.5"/> <polygon class="st20" points="1292.7 463.8 1238 462.7 1244.4 94.2 1299.1 95.3"/> <polygon class="st21" points="1372.7 414.2 1292.7 463.8 1299.1 95.3 1376.6 189.4"/> <rect class="st21" transform="matrix(.9998 .017452 -.017452 .9998 2.0016 -22.177)" x="1244.3" y="94.7" width="54.7" height="17.7"/> <rect class="st21" transform="matrix(.9998 .017452 -.017452 .9998 2.3887 -22.167)" x="1243.9" y="121.3" width="54.7" height="8.9"/> <rect class="st10" transform="matrix(.9994 -.0349 .0349 .9994 -8.4518 41.705)" x="1162.3" y="244.6" width="56.3" height="36.7"/> <rect class="st11" transform="matrix(.9994 -.0349 .0349 .9994 -8.4518 41.705)" x="1162.3" y="253.7" width="56.3" height="18.5"/> <rect class="st0" transform="matrix(.9994 .0349 -.0349 .9994 12.357 -47.407)" x="1339.3" y="197.5" width="49.7" height="265.4"/> <polygon class="st1" points="1434 447.5 1384.4 463.8 1393.6 198.5 1443.3 222.3"/> <rect class="st2" transform="matrix(.9994 .0349 -.0349 .9994 8.1732 -47.626)" x="1343.5" y="208.6" width="49.7" height="3.5"/> <rect class="st2" transform="matrix(.9994 .0349 -.0349 .9994 8.4394 -47.612)" x="1343.2" y="216.2" width="49.7" height="3.5"/> <rect class="st2" transform="matrix(.9994 .0349 -.0349 .9994 8.7055 -47.598)" x="1343" y="223.8" width="49.7" height="3.5"/> <rect class="st14" x="1411.3" y="180.2" width="42.4" height="282.7"/> <polygon class="st15" points="1505.9 443.7 1453.7 462.8 1453.7 180.2 1507.4 203.7"/> <rect class="st11" x="1411.3" y="191.8" width="42.4" height="9.2"/> <rect class="st11" x="1411.3" y="204" width="42.4" height="9.2"/> <rect class="st14" x="1411.3" y="180.2" width="42.4" height="282.7"/> <polygon class="st15" points="1505.9 443.7 1453.7 462.8 1453.7 180.2 1507.4 203.7"/> <rect class="st2" x="1411.3" y="190" width="42.4" height="8.7"/> <rect class="st2" x="1411.3" y="202.3" width="42.4" height="8.7"/> <rect class="st16" transform="matrix(.9998 -.017452 .017452 .9998 -5.3902 26.284)" x="1475.4" y="180.6" width="55.6" height="282.7"/> <polygon class="st17" points="1585.4 442.7 1533.5 462.8 1528.6 180.2 1582.7 202.7"/> <rect class="st22" transform="matrix(.9998 -.017735 .017735 .9998 -3.2425 26.652)" x="1473.2" y="192.3" width="55.6" height="7.8"/> <polygon class="st22" points="1529.2 212.6 1473.5 213.5 1473.4 205.6 1529 204.7"/> <rect class="st23" transform="matrix(.9998 .017453 -.017453 .9998 5.6318 -19.056)" x="1068.7" y="294.8" width="51.7" height="36.7"/> <rect class="st11" transform="matrix(.9998 .017453 -.017453 .9998 5.6305 -19.054)" x="1072.9" y="303.8" width="43.2" height="18.5"/> </svg>