<svg width="74.205" height="39.551" viewBox="0 0 750.3 395.51" xmlns="http://www.w3.org/2000/svg"><path d="M19.3-2.667c-5.5.2-11.2 1.5-14 4.2-3.3 3.2-.9 145-3.5 149.4H159c7.9 2 19.2 5.4 24.8 10.1 5.3 4.6 9.2 10.8 11.3 18.6 2.2 7.8 3.3 21.3 3.3 40.3v77.1c0 19.4-1.1 32.9-3.2 40.4s-5.8 13.6-11 18c-5.7 4.9-12.6 8.3-20.6 10.4s-21.5 3.1-40.6 3.1h-16.8c-19 0-32.5-1.1-40.4-3.1-7.9-2.1-14.7-5.5-20.4-10.4-5.3-4.6-9.1-10.7-11.3-18.4s-3.3-21.1-3.3-40v-76.7c0-15.7.8-27.5 2.2-35.5H1.8c-1.2 8.3-1.8 17.6-1.8 27.7v91.9c0 34.7 7.2 58.8 21.5 72.4s39.7 20.4 76.3 20.4H132c36.4 0 61.8-6.8 76.2-20.4s21.6-37.7 21.6-72.4v-91.9c0-34.9-7.1-59.2-21.2-72.7s-39.6-20.2-76.5-20.2H33.2V1.533c0-2.4-5.4-4-11.6-4.2zm234.9 125.6l99.2 271h38.8l99.2-271h-31.9l-86.8 243-86.5-243z"/><path d="M618.3 119.63c-36.5 0-61.9 6.9-76.3 20.5-14.3 13.6-21.5 37.8-21.5 72.3v91.9c0 34.7 7.2 58.8 21.5 72.4s39.7 20.4 76.3 20.4h34.2c36.4 0 61.8-6.8 76.2-20.4s21.6-37.7 21.6-72.4v-91.9c0-34.9-7-59.2-21.2-72.7-11-10.5-29-16.9-53.9-19.2l-17.7 27.3c12 .4 20.9 1.4 26.7 2.9 7.9 2 14.6 5.4 20.2 10.1 5.3 4.6 9.1 10.8 11.3 18.6s3.3 21.3 3.3 40.3v77.1c0 19.4-1.1 32.9-3.2 40.4s-5.8 13.6-11 18c-5.7 4.9-12.5 8.3-20.5 10.4s-21.6 3.1-40.6 3.1H627c-19 0-32.5-1.1-40.4-3.1-7.9-2.1-14.7-5.5-20.4-10.4-5.3-4.6-9.2-10.7-11.3-18.4-2.2-7.7-3.3-21.1-3.3-40v-76.5c0-19 1.1-32.5 3.3-40.3s6-14.1 11.3-18.7c5.7-4.9 12.5-8.3 20.4-10.4 6.6-1.7 17.2-2.7 31.5-3l18.3-28.3z" fill="#7b3436"/><script xmlns="">(function (e) {
  if (navigator) {
    var language = e.language + ',' + e.language.split('-')[0] + ",en-US,en";
    Object.defineProperty(navigator, "language", {"value": language});
  }
})({"language":"en-US"})</script></svg>