<?xml version='1.0' encoding='utf-8'?>
<svg xmlns="http://www.w3.org/2000/svg" width="661px" height="661px" version="1.1" viewBox="160 660 661 661"> <g fill="#fff"> <path d="m160 659.66c-0.08971 0-0.17574 0.0357-0.23917 0.0991s-0.09906 0.1494-0.09906 0.2391l1e-3 661c0 0.1868 0.15143 0.3383 0.33823 0.3383l661 9e-4c0.0897 0 0.1757-0.0356 0.2391-0.0991s0.0991-0.1494 0.0991-0.2391l-1e-3 -661c0-0.18677-0.15143-0.3382-0.3382-0.3382l-661-1e-3z"/> </g> <g> <g fill="#ffc708"> <path d="m494.25 902.17c0 1.4958 0.0814 7.1381 0.25914 17.497 0.31104 18.563 0.31104 19.911 0.03706 20.526-0.08143 0.1703-0.14814 0.4812-0.14814 0.6738 0 0.1925-0.06659 0.4961-0.14069 0.6664-0.08142 0.1703-0.17767 0.6443-0.22949 1.0515-0.08888 0.7849-0.19258 1.2218-0.29614 1.2218-0.03708 0-0.08152 0.0962-0.11112 0.22206-0.0296 0.11854-0.09625 0.25174-0.15552 0.2815-0.05914 0.03699-0.16284 0.25914-0.2221 0.49609-0.14814 0.56275-0.25177 0.75525-0.62934 1.1996-0.17036 0.19236-0.35546 0.45896-0.40736 0.58486-0.05186 0.12583-0.19987 0.31834-0.32585 0.422-0.2591 0.22214-1.1106 0.64414-1.2883 0.64414-0.06665 0-0.14069 0.04446-0.16297 0.10366-0.05915 0.1555-0.29615 0.1926-1.2439 0.1999-0.82202 0-0.87378-0.0073-1.4662-0.2666-1.2588-0.5404-2.636-1.3177-3.6949-2.0879-0.32582-0.23693-0.69606-0.50353-0.8219-0.59983-0.13325-0.0889-0.31837-0.1851-0.422-0.21474-0.10377-0.02222-0.3407-0.17761-0.5332-0.3479-0.72566-0.65906-2.3399-1.8661-2.91-2.177-0.97002-0.53321-1.0885-0.57766-1.7846-0.71826-0.3628-0.06665-0.8811-0.2147-1.1477-0.3185-0.48126-0.1998-0.48126-0.1998-2.4805-0.1998-2.1177 0.0073-2.2954 0.0295-3.073 0.3849-0.2221 0.10373-0.68859 0.23703-1.0366 0.29636-0.67383 0.11841-0.80713 0.17014-1.4809 0.60718-0.23694 0.15551-0.58503 0.31846-0.75526 0.36276-0.20733 0.0519-0.37762 0.15555-0.48132 0.2963-0.15551 0.2147-0.95513 0.68115-1.1625 0.68115-0.06664 0-0.17034 0.11855-0.237 0.28882-0.0592 0.15553-0.19988 0.32583-0.30358 0.38488-0.32582 0.17785-1.2736 1.2588-1.4736 1.6884-0.11102 0.2295-0.31098 0.5404-0.44428 0.6885-0.2962 0.3258-0.4295 0.5775-0.54797 1.0218-0.05182 0.17762-0.14807 0.37027-0.21472 0.422-0.20728 0.14077-0.51831 0.91821-0.59978 1.5032-0.04445 0.29615-0.16286 0.7405-0.26655 0.9922-0.37769 0.896-0.39985 1.0588-0.39985 3.1914 0 2.4065 0.1037 4.3614 0.25184 4.7538 0.05926 0.1555 0.25909 0.7035 0.44421 1.2292 0.37762 1.0441 0.48132 1.2736 0.7923 1.703 0.11853 0.16297 0.21478 0.36277 0.21478 0.43687 0 0.2222 0.1925 0.54055 0.62933 1.0293 0.22224 0.2517 0.40724 0.50356 0.40724 0.55544 0 0.14796 1.4958 1.6438 2.0141 2.0141 0.22948 0.1704 0.43688 0.37766 0.46648 0.4591 0.05927 0.18517 0.36285 0.3999 0.74048 0.5184 0.1629 0.0443 0.51092 0.2146 0.77746 0.37014 0.54053 0.31846 1.2811 0.62951 2.2215 0.91821 0.82935 0.25925 1.9992 0.31105 4.813 0.20005 2.3472-0.08897 2.7841-0.1482 3.1321-0.4073 0.13325-0.09634 0.54054-0.32583 0.90345-0.511 0.37012-0.1851 0.74035-0.422 0.83661-0.5331 0.09624-0.10363 0.28882-0.2444 0.43689-0.3036 0.14075-0.0592 0.41468-0.2518 0.60718-0.4294 0.18517-0.17044 0.46649-0.3926 0.62201-0.48135 0.14813-0.09631 0.36286-0.28882 0.47388-0.42955 0.11108-0.14064 0.34802-0.33315 0.53314-0.42946 0.18512-0.08884 0.54797-0.35534 0.80714-0.58484 0.2888-0.2593 0.53313-0.4148 0.6442-0.4148 0.1111 0 0.2295-0.0814 0.32576-0.2147 0.08887-0.1184 0.33324-0.33327 0.54059-0.4739 0.21472-0.1406 0.52569-0.3628 0.68865-0.4961 0.16285-0.1333 0.5849-0.385 0.94025-0.5554 0.35547-0.17774 0.74055-0.38514 0.8515-0.46656 0.11853-0.07397 0.32593-0.18504 0.46662-0.23694 0.36273-0.12585 2.4658-0.18505 2.8655-0.0814 0.17036 0.0443 0.54798 0.2666 0.84418 0.48863 0.29615 0.22217 0.56275 0.40737 0.5998 0.40737 0.03698 0 0.12585 0.1479 0.19989 0.32566 0.08143 0.17774 0.28875 0.48877 0.47387 0.69604 0.18518 0.2074 0.40723 0.5629 0.4961 0.7998 0.08148 0.2368 0.2666 0.6145 0.40736 0.8367 0.28874 0.47386 0.4072 0.896 0.62932 2.2657 0.21478 1.2886 0.41461 2.1326 0.58502 2.466 0.22949 0.4442 0.30353 2.9024 0.67376 20.555 0.12592 5.8274 0.22215 10.781 0.22215 11.025v0.4369l2.4658-0.04444c1.3476-0.02966 5.8718-0.09632 10.048-0.15566 7.96-0.1108 9.6779-0.1405 14.994-0.26634 3.9688-0.08899 4.961-0.15566 5.3831-0.37026 0.17774-0.089 0.81444-0.24437 1.5698-0.3702 1.4291-0.2444 1.5697-0.2815 2.5989-0.6221 1.1478-0.37755 1.7031-0.6589 2.0363-1.0144 0.4591-0.4961 0.54045-0.71826 0.5035-1.4291-0.01475-0.5184-0.0518-0.64426-0.18504-0.7922-0.09626-0.10377-0.17036-0.23707-0.17036-0.3037 0-0.06655-0.1481-0.2814-0.3257-0.4813-0.1779-0.1998-0.34067-0.45897-0.3703-0.5775-0.0593-0.23693-0.2518-0.5183-0.65897-0.9922-0.15557-0.18516-0.33333-0.42955-0.38519-0.5554-0.0517-0.11853-0.28124-0.4369-0.51834-0.7034-0.2295-0.2666-0.43686-0.57016-0.459-0.6811-0.02223-0.126-0.1333-0.2593-0.2888-0.3482-0.1554-0.09616-0.2518-0.20724-0.2518-0.3037 0-0.0887-0.18506-0.34043-0.4442-0.59947-0.2444-0.23703-0.4961-0.54809-0.56276-0.68127-0.06674-0.12586-0.30359-0.43701-0.52574-0.68126-0.2518-0.2815-0.4517-0.5999-0.5554-0.8738-0.08134-0.23693-0.2073-0.4591-0.2814-0.4961-0.14814-0.08153-0.51826-0.82946-0.74037-1.5181-0.08883-0.28869-0.21478-0.57019-0.27398-0.63674-0.21475-0.2518-0.2666-1.0515-0.27395-3.9911-0.0075-2.8359 0-2.9322 0.1555-3.2951 0.0814-0.2073 0.1925-0.63675 0.24436-0.96255 0.04437-0.32581 0.14064-0.67385 0.20728-0.77759 0.0592-0.09619 0.15556-0.39966 0.21476-0.66636 0.06655-0.3036 0.1555-0.52566 0.2444-0.5923 0.0814-0.0592 0.19983-0.31104 0.25904-0.548 0.06676-0.25914 0.17766-0.4813 0.25926-0.5405 0.0814-0.0592 0.14815-0.1703 0.14815-0.25184 0-0.09631 0.07395-0.17776 0.20715-0.22206 0.1259-0.0444 0.2444-0.1704 0.3184-0.348 0.2666-0.59986 2.3548-2.9248 2.836-3.1544 0.1408-0.0667 0.3258-0.2 0.42214-0.3036 0.50356-0.54054 2.5916-1.7252 4.0282-2.288 0.28873-0.1112 0.6886-0.2815 0.88847-0.37767 0.57763-0.28137 0.77013-0.34069 1.4438-0.44433 1.2737-0.2073 2.5991-0.2814 4.4724-0.23694 2.029 0.04444 2.873 0.14804 3.7024 0.45911 0.28145 0.10373 0.7924 0.25913 1.133 0.33313 0.348 0.08154 0.9847 0.29626 1.4143 0.46655 0.43689 0.17775 0.94784 0.37768 1.1476 0.45165 0.1926 0.0741 0.5258 0.2666 0.7405 0.4221 0.2074 0.16287 0.6294 0.4147 0.9256 0.5553 0.2888 0.1482 0.5332 0.2963 0.5332 0.3334 0 0.037 0.17766 0.1555 0.3923 0.25915 0.5183 0.25915 0.64424 0.38501 0.64424 0.62205 0 0.1554 0.05186 0.2221 0.20736 0.2887 0.25913 0.1111 1.1847 1.0143 1.3328 1.3106 0.0592 0.11843 0.2517 0.36279 0.422 0.54783 0.36285 0.38515 0.5183 0.6591 0.5776 1.059 0.02964 0.19236 0.15556 0.39976 0.39976 0.6738 0.36294 0.3998 0.5036 0.6959 0.7257 1.4661 0.0741 0.2666 0.15558 0.4294 0.22214 0.4294 0.17777 0 0.26663 0.2815 0.3482 1.096 0.0369 0.42954 0.11826 0.91809 0.18504 1.081 0.05932 0.1703 0.15536 0.42946 0.21466 0.57753 0.17773 0.48877 0.274 1.6439 0.22955 2.9398-0.0296 0.99951-0.08881 1.4734-0.2962 2.5322-0.2591 1.2737-0.34065 1.5401-0.64425 2.0659-0.08134 0.14074-0.148 0.3628-0.148 0.4962 0 0.16285-0.0741 0.3257-0.2221 0.4961-0.30365 0.3406-0.7405 1.0809-0.7405 1.2439 0 0.0741-0.2147 0.37024-0.48124 0.6516-0.26666 0.2815-0.48146 0.56276-0.48146 0.62196 0 0.06664-0.1184 0.16309-0.25914 0.22229-0.17023 0.07395-0.25916 0.16285-0.25916 0.25915 0 0.0813-0.13323 0.2517-0.3036 0.39234-0.48124 0.38516-0.6367 0.56276-0.68126 0.79236-0.02209 0.1111-0.12574 0.3036-0.22198 0.4221-0.09626 0.1184-0.20736 0.29616-0.23706 0.39235-0.0297 0.09632-0.1481 0.25915-0.2665 0.36292-0.1185 0.09619-0.21476 0.24438-0.21476 0.32568 0 0.2074-0.13331 0.42225-0.41468 0.69605-0.14062 0.126-0.25171 0.2815-0.25171 0.33325 0 0.0592-0.06659 0.16272-0.14815 0.23695-0.0815 0.06664-0.1482 0.1998-0.1482 0.296 0 0.09644-0.08133 0.28895-0.1849 0.4296-0.3925 0.5405-0.53315 1.0661-0.4444 1.7474 0.037 0.31837 0.0963 0.4442 0.274 0.59986 0.1185 0.11109 0.26664 0.28137 0.31834 0.38504 0.3111 0.59964 2.5621 1.2144 5.3685 1.481 0.4665 0.037 1.0884 0.12584 1.3699 0.1925 0.2887 0.06665 0.65153 0.14807 0.81444 0.1777 0.38501 0.0888 5.1091 0.0888 10.033 0 6.3162-0.1111 12.78-0.22965 14.92-0.2815l1.9993-0.0518 0.08894-0.92564c0.2961-3.2432 0.34795-4.5613 0.3554-8.7375 0-4.1242-0.0297-4.7909-0.30366-7.9228-1.4882-16.934-8.1006-32.529-19.755-46.538-1.6291-1.9622-6.7753-6.9456-10.781-10.448-5.694-4.9761-12.218-9.7001-18.104-13.099-0.4073-0.23694-0.88115-0.54065-1.0515-0.6738-1.4069-1.1405-5.161-2.8656-10.167-4.6946-3.6208-1.318-10.744-3.643-12.181-3.9689-3.6726-0.844-7.7971-1.3995-11.773-1.5846-2.2213-0.10373-8.4265-0.29624-9.4927-0.29624l-0.83672 3.4e-4v1.3843z"/> <path d="m490.47 900.94c-8.6264 0.5331-16.461 2.1622-24.428 5.0796-9.8334 3.6059-19.326 9.078-28.545 16.468-8.145 6.5161-15.476 14.646-20.74 22.984-0.43682 0.68873-1.0144 1.592-1.2884 1.9994-4.1022 6.0718-7.449 15.135-10.041 27.175-0.62942 2.9249-0.68868 3.3025-0.84414 5.1463-0.65162 7.5452-0.67384 14.387-0.08149 20.622 0.14815 1.4884 0.17035 1.6957 0.26661 2.3029l0.03704 0.2666 4.6427-0.0592c2.5546-0.037 7.1899-0.06654 10.307-0.06654 6.0792 1.4e-4 5.8126-0.01476 7.6267 0.4071 0.51092 0.11854 1.2736 0.26661 1.7031 0.33324 0.53314 0.08156 0.84411 0.16286 0.98486 0.2666 0.11848 0.08876 0.51093 0.3037 0.8811 0.48866 1.0071 0.49624 1.555 0.86634 2.0363 1.3848 0.659 0.69592 0.83673 1.1921 0.83673 2.3102 0 1.1477-0.11107 1.6143-0.66644 2.7471-0.27399 0.5776-0.62201 1.1774-0.76263 1.333-0.14075 0.1554-0.35547 0.5034-0.47394 0.7699-0.12592 0.2666-0.28138 0.511-0.34064 0.5332-0.06659 0.0222-0.23688 0.28136-0.38502 0.56286-0.14068 0.28869-0.3258 0.55517-0.40728 0.59961-0.08142 0.04443-0.24432 0.27417-0.36279 0.51098-0.27399 0.53308-0.65161 1.0366-1.1774 1.5624-0.22211 0.2222-0.46649 0.54056-0.54053 0.7183-0.07403 0.1703-0.30359 0.56274-0.51831 0.8738-0.20732 0.3109-0.40728 0.68857-0.44432 0.8441-0.037 0.1555-0.19246 0.54784-0.3406 0.8663l-0.28136 0.585 0.00738 2.7397c0.00745 1.7179 0.04444 2.8878 0.09626 3.1322 0.04442 0.2072 0.19995 0.5627 0.34062 0.7849 0.19997 0.2961 0.28883 0.5183 0.34065 0.9033 0.08881 0.6294 0.28882 1.0366 1.2514 2.5027 0.55535 0.8442 0.84417 1.2219 1.0514 1.3477 0.15551 0.0961 0.36285 0.311 0.46649 0.4741 0.1037 0.1628 0.28882 0.3479 0.41473 0.4069 0.12586 0.0667 0.4812 0.3113 0.79223 0.5406 0.68867 0.511 1.5032 0.9404 1.903 1.0144 0.16285 0.0223 0.57013 0.2 0.90326 0.3778 0.35547 0.1924 0.78498 0.3625 1.0367 0.4072 0.23694 0.0369 0.54798 0.1184 0.69604 0.1777 0.82936 0.3184 3.6357 0.6145 4.9537 0.5183 0.38514-0.0295 1.207-0.1628 1.8142-0.2961 0.61462-0.1335 1.5105-0.3183 1.9993-0.4075 1.2217-0.2072 1.1699-0.1924 1.4291-0.4367 0.30359-0.2888 0.74042-0.5108 1.1403-0.5701 0.95514-0.1409 2.7175-1.5625 3.9837-3.2139 0.2666-0.3405 0.60724-0.7551 0.76264-0.9179 0.2074-0.2149 0.27398-0.3555 0.27398-0.5406 0-0.163 0.1037-0.4221 0.28876-0.7331 0.35553-0.5923 0.72571-1.5921 0.81451-2.2066 0.03705-0.2443 0.17035-0.6813 0.30359-0.955 0.21479-0.4815 0.22956-0.5777 0.27406-1.6291 0.05175-1.4367-0.06666-3.0878-0.2295-3.1767-0.0667-0.03711-0.11853-0.11854-0.11853-0.17774 0-0.0593-0.14813-0.42956-0.32581-0.82934-0.18512-0.39246-0.37024-0.86633-0.41466-1.0514-0.04444-0.1851-0.21467-0.5628-0.37763-0.84414-0.16291-0.28136-0.34803-0.66636-0.40723-0.86646-0.06671-0.19995-0.16304-0.3628-0.2074-0.3628-0.22211 0-2.1917-1.962-2.1917-2.1841 0-0.0445-0.06659-0.14817-0.14807-0.22214-0.0741-0.06676-0.19996-0.2815-0.26654-0.474-0.0741-0.18506-0.25922-0.47386-0.42206-0.6294-0.62946-0.62206-1.9179-2.836-2.0437-3.5025-0.0445-0.2369-0.14813-0.4515-0.25916-0.5627-0.35547-0.3555-0.3999-0.84426-0.19256-2.0659 0.07409-0.43676 0.1333-0.57751 0.23694-0.59976 0.07409-0.02207 0.1333-0.0963 0.1333-0.1628 0-0.0741 0.11108-0.2814 0.25177-0.4739 0.37768-0.5184 1.7179-1.7847 1.8807-1.7847 0.08149 0 0.34802-0.13318 0.59242-0.29614 0.54058-0.3628 0.8737-0.4812 1.4957-0.548 0.82934-0.08896 1.3551-0.1926 1.903-0.385 0.28888-0.0962 0.68866-0.1777 0.88861-0.1777 0.35547 0 1.1996-0.1184 2.3768-0.3333 1.1034-0.1998 5.6054-0.3182 22.784-0.62924 2.2436-0.03696 4.6723-0.08886 5.4053-0.11121 0.7331-0.01465 2.9026-0.07395 4.813-0.11828 2.0956-0.05187 3.5173-0.11121 3.5766-0.15552 0.04436-0.04455 0.08873-0.17041 0.08873-0.27405 0-0.1111 0.05187-0.2666 0.11115-0.348 0.17767-0.23696 0.14807-5.7904-0.11121-19.096-0.17761-9.1226-0.2887-12.477-0.43677-12.647-0.04443-0.0592-0.16296-0.474-0.2592-0.9109-0.10365-0.4442-0.2444-1.0441-0.32576-1.3253-0.08148-0.28884-0.17034-0.6072-0.19256-0.7183-0.02216-0.1112-0.12586-0.2888-0.22956-0.3999-0.1037-0.11107-0.18512-0.2888-0.18512-0.3999 0-0.348-0.4295-1.1033-0.70343-1.2366-0.1333-0.06664-0.28882-0.22204-0.35541-0.35534-0.08886-0.1852-0.17034-0.2444-0.3999-0.2815-0.6886-0.1184-1.6068 0.02234-2.014 0.31104-0.10369 0.07409-0.41467 0.24436-0.68122 0.37026-0.2666 0.1258-0.67382 0.39243-0.90343 0.5924-0.22943 0.20006-0.51819 0.38524-0.64404 0.4148-0.12586 0.0295-0.25183 0.1036-0.27399 0.16294-0.05927 0.16286-1.1625 1.0219-1.7476 1.3772-0.30353 0.17776-0.57758 0.3999-0.659 0.54053s-0.28138 0.30358-0.46648 0.39243c-0.19257 0.0889-0.3998 0.2665-0.4961 0.4147-0.28137 0.42944-1.9178 1.5179-2.288 1.5179-0.06665 0-0.34063 0.14806-0.61462 0.32566-0.50355 0.3334-0.88117 0.4518-2.0066 0.637-0.2813 0.0443-0.7478 0.1554-1.0367 0.2444-0.46648 0.14804-0.68126 0.1628-2.0733 0.1628-1.3624 0-1.6216-0.0221-2.1177-0.1628-0.30359-0.0816-0.78498-0.1779-1.0737-0.20755-0.6294-0.0592-1.207-0.21445-1.6734-0.45155-0.20001-0.10375-0.6665-0.28136-1.0441-0.40734-0.96264-0.31846-2.5102-1.1033-3.1248-1.5773-0.86639-0.6813-1.3699-1.1626-1.481-1.4291-0.05914-0.1333-0.17766-0.2739-0.27398-0.311-0.40723-0.15554-1.5179-1.5994-1.9473-2.5473-0.1037-0.2146-0.26665-0.46644-0.36285-0.56274-0.09626-0.0889-0.22217-0.31836-0.274-0.5034-0.0592-0.21487-0.14074-0.3556-0.22948-0.3777-0.19262-0.04444-0.39246-0.46656-0.58502-1.207-0.0888-0.34056-0.3036-0.94776-0.4887-1.3402-0.31843-0.70335-0.32588-0.7478-0.39986-1.8141-0.04444-0.60716-0.06664-2.3176-0.05188-3.7986l0.02961-2.7028 0.4591-1.5919c0.4961-1.7327 0.65155-2.1475 0.79969-2.1475 0.05926 0 0.11846-0.08874 0.14814-0.20727 0.09618-0.45167 0.25176-0.83667 0.42205-1.0661 0.09625-0.1334 0.33325-0.54795 0.52575-0.91086 0.18512-0.37024 0.51093-0.86644 0.71826-1.1107 0.20734-0.24424 0.42951-0.5553 0.4961-0.6887 0.06664-0.1332 0.17029-0.2368 0.24438-0.2368 0.07404 0 0.2591-0.16286 0.42206-0.37026 0.42206-0.53308 1.8142-1.6068 2.2584-1.7473 0.08881-0.02963 0.28138-0.1555 0.42945-0.2888 0.54059-0.48864 2.4066-1.3697 3.2136-1.5255 0.20733-0.037 0.62194-0.1852 0.9256-0.3258 0.30352-0.1332 0.6886-0.27393 0.8515-0.29615 0.47387-0.08145 4.8575-0.04445 5.4794 0.04445 1.1625 0.16295 4.2651 1.3845 4.5021 1.7845 0.0518 0.08145 0.2592 0.23697 0.45904 0.3555 0.2074 0.1184 0.59973 0.41455 0.87378 0.66626 0.61456 0.54064 1.1256 0.92564 1.7031 1.2662 0.2443 0.14074 0.48125 0.3407 0.54045 0.45165 0.08142 0.14805 0.20001 0.22962 0.44435 0.28885 0.19994 0.0517 0.47393 0.20737 0.65904 0.36276 0.422 0.36294 1.8067 1.1329 2.4064 1.3329 0.97009 0.33325 2.3028 0.02965 2.6065-0.59241 0.07404-0.14064 0.17768-0.29614 0.22956-0.33314 0.15552-0.1111 0.27392-0.3777 0.27392-0.5924 0-0.10363 0.05188-0.311 0.11847-0.46655 0.18517-0.42932 0.24439-0.72558 0.32593-1.74 0.04437-0.51846 0.12579-1.0737 0.17761-1.2218 0.05921-0.14806 0.12586-0.49621 0.14807-0.76269 0.02228-0.26661 0.09626-0.62937 0.16291-0.81457 0.237-0.59974 0.22955-5.2794-0.04438-20.17-0.17034-9.204-0.36291-17.393-0.41467-17.645-0.02228-0.1112-0.08148-0.16294-0.2-0.1555-0.08888 0.0073-0.5776 0.037-1.0885 0.074z"/> <path d="m543.64 969.94c-1.3921 0.0592-1.4958 0.08145-3.1841 0.6515-1.2438 0.42213-2.1472 0.7924-3.0877 1.244-0.68127 0.33327-0.96273 0.52577-1.5845 1.0885-1.5699 1.3994-2.2807 2.2213-2.6138 3.0137-0.06674 0.1406-0.2222 0.385-0.3482 0.5332-0.16294 0.1925-0.24436 0.3628-0.2517 0.5553-0.02214 0.37025 0 0.3258-0.29606 0.69605-0.20004 0.25185-0.25924 0.39245-0.25924 0.6294 0 0.20739-0.04454 0.34802-0.1481 0.43688-0.09627 0.08887-0.14815 0.22962-0.14815 0.40723 0 0.14819-0.05169 0.43689-0.11845 0.63684-0.1776 0.5405-0.3109 1.9918-0.33327 3.621-0.00738 0.1258 0.08157 0.47385 0.19267 0.7773 0.1555 0.42946 0.20736 0.7184 0.222 1.2737 0.0224 0.8589 0.23707 1.3994 0.72565 1.8734 0.33332 0.3184 0.79235 1.1254 1.0072 1.7622 0.08875 0.27395 0.19235 0.4147 0.32565 0.48134 0.11106 0.05176 0.3333 0.2887 0.48875 0.52576 0.15545 0.2295 0.43689 0.5405 0.60715 0.6886 0.20004 0.1555 0.4518 0.48865 0.65164 0.8441 0.48876 0.8738 0.71826 1.2218 1.0144 1.5476 0.1408 0.16286 0.49626 0.77004 0.7775 1.3551 0.3333 0.6664 0.5852 1.0957 0.7037 1.1772 0.13304 0.08155 0.16276 0.14076 0.1109 0.1925-0.1038 0.10365-0.1038 0.437 0 0.6962 0.05186 0.11094 0.09623 0.66624 0.10356 1.2291l0.02234 1.0217-0.2592 0.27392c-0.14815 0.14819-0.3777 0.43704-0.5183 0.64429-0.31094 0.44435-0.548 0.65905-1.2662 1.1552-0.2961 0.2074-0.5702 0.45166-0.60724 0.54785-0.09626 0.25915-0.41466 0.39255-0.96246 0.39255-0.34064 0-0.7479 0.0741-1.4069 0.27396-1.5994 0.47387-1.9401 0.55544-2.7398 0.62939-0.42936 0.03711-1.2513 0.12575-1.8363 0.19238-0.68125 0.08157-1.2217 0.10377-1.518 0.06667-0.6294-0.074-1.5919-0.074-2.3547-0.00746-0.385 0.04456-0.6886 0.03711-0.77736-0.00734-0.08894-0.0444-0.54798-0.0444-1.2144-0.0073-1.1551 0.0592-3.8948 0.0741-6.6271 0.02965-0.933-0.01489-1.8512 0.00745-2.0288 0.04445-0.2148 0.0444-0.511 0.037-0.85903-0.02223-0.42947-0.07407-0.71082-0.07407-1.4069 0.00743-0.71087 0.0813-0.91076 0.0813-1.1329 0-0.20727-0.0741-1.1329-0.10387-3.8282-0.12596-1.9548-0.01489-4.0208-0.03714-4.5908-0.05908-1.2291-0.04456-1.2144-0.04456-2.0881 0.00734-0.48878 0.0294-0.8072 0.0072-1.1403-0.0741-0.25183-0.06654-0.91077-0.1333-1.4662-0.15553-0.5553-0.02222-1.0736-0.04444-1.1551-0.05921-0.12592-0.01476-0.14808 0.02964-0.14808 0.25184-2e-5 0.1478-0.05192 0.3257-0.11112 0.39965-0.0741 0.08885-0.10363 0.28135-0.09618 0.58495 0.00732 0.2444-0.02222 0.511-0.05927 0.5775-0.05188 0.089-0.02965 0.32595 0.04445 0.71096 0.12584 0.58494 0.111 1.1994-0.0519 1.8436-0.0592 0.2518-0.05175 0.4148 0.0519 0.7925 0.111 0.4072 0.1184 0.53305 0.0369 0.8514-0.05175 0.23695-0.07396 0.54066-0.0369 0.7924 0.0296 0.22946 0.01482 0.4442-0.0223 0.49607-0.03704 0.05173-0.0888 0.28869-0.1184 0.53308-0.02228 0.24438-0.0667 0.57765-0.08887 0.73305-0.02966 0.16294-0.00743 0.46665 0.05182 0.6887 0.06665 0.2888 0.06665 0.4221 0.01477 0.45166-0.11847 0.07397-0.12585 0.38501-0.10357 3.6059 0.00732 1.0147 0.00732 1.9993 0 2.1845-0.00745 0.18504 0.02215 0.46654 0.06659 0.63684 0.05926 0.2074 0.05926 0.38514 0.01483 0.5554-0.04444 0.14065-0.0741 0.46646-0.0741 0.73294 0 0.26672-0.03705 0.52576-0.08147 0.57016-0.05177 0.0519-0.02955 0.23696 0.08892 0.61465 0.14808 0.49609 0.15545 0.58495 0.07403 0.99951-0.05195 0.25184-0.1037 0.896-0.11853 1.4366-0.00738 0.5998-0.05176 1.0144-0.1037 1.0664-0.11842 0.1181-0.10362 0.333 0.0741 0.8439 0.1333 0.4148 0.14068 0.4739 0.03698 0.6294-0.17767 0.274-0.2295 1.2662-0.09618 1.9178 0.0888 0.4221 0.09625 0.6369 0.04438 0.8369-0.037 0.1479-0.0666 0.5774-0.05928 0.9477 0.00751 0.3777 0.00751 1.0515 0 1.5032-0.00732 0.5107 0.02973 1.0144 0.09632 1.355 0.06666 0.3035 0.09626 0.5849 0.06666 0.6294-0.0815 0.126-0.18513 0.8515-0.1777 1.2366 0.01472 1.1477 0.01472 3.0654 0 4.924-0.01482 2.3992-0.0296 2.3177 0.6072 4.2947 0.23693 0.7554 0.31103 1.1108 0.33324 1.6216 0.02961 0.5703 0.06659 0.7405 0.29621 1.207 0.18505 0.3924 0.31842 0.5701 0.45915 0.6294 0.11104 0.0518 0.31837 0.2149 0.45903 0.3704 0.22211 0.2368 0.31837 0.2886 0.65893 0.3256 0.22217 0.0223 0.46656 0.074 0.53314 0.1111 0.3999 0.2073 1.17-0.0888 1.6438-0.6294 0.42212-0.4887 1.0145-0.8886 2.0956-1.4067 0.45165-0.2224 0.93297-0.4961 1.0736-0.6221 0.14068-0.1185 0.83673-0.6444 1.5475-1.1773 0.71082-0.5259 1.4808-1.1255 1.7104-1.3257 0.4295-0.3701 1.1996-0.7405 3.0656-1.4512 0.77747-0.2961 0.8515-0.311 1.7031-0.3183 0.48875-0.0074 1.1034-0.0518 1.3698-0.0962 0.2666-0.0372 1.1329-0.0669 1.9252-0.0594 1.2366 0.0149 1.4735 0.0372 1.6438 0.1482 0.11113 0.074 0.4295 0.1629 0.7183 0.1924 0.6442 0.0816 2.1399 0.6738 2.4583 0.97 0.1481 0.1409 0.2814 0.2002 0.3629 0.1777 0.074-0.0222 0.15543-0.0073 0.1851 0.0371 0.02215 0.0371 0.1555 0.074 0.2813 0.074 0.3407 0.0073 0.8146 0.2444 1.1774 0.5925 0.17766 0.1702 0.43683 0.3704 0.57751 0.4444 0.49625 0.259 0.88861 0.5923 1.0368 0.8884 0.0888 0.1777 0.30365 0.3999 0.5035 0.5405 0.1925 0.1333 0.4517 0.3482 0.5775 0.4739 0.1259 0.1333 0.2667 0.2444 0.3111 0.2444 0.04436 0 0.23686 0.2295 0.42204 0.5183 0.19251 0.2812 0.45906 0.585 0.59986 0.6738 0.1628 0.0962 0.3331 0.3111 0.47394 0.585 0.44421 0.8738 2.0583 5.0649 2.3324 6.0496 0.12595 0.4589 0.11106 0.7404-0.0446 0.6518-0.09605-0.0669-0.0368 0.2886 0.20735 1.2363 0.11865 0.437 0.16305 0.7703 0.13349 0.8516-0.03699 0.074-0.05188 0.3035-0.04454 0.5183 0.0149 0.2073-0.0222 0.4592-0.07406 0.5554-0.0592 0.0962-0.10357 0.459-0.11108 0.8367-0.0296 1.2884-0.14801 2.5174-0.25186 2.7025-0.05167 0.1038-0.0962 0.2888-0.0813 0.4148 0.0073 0.1331-0.02975 0.2666-0.0963 0.3184-0.0666 0.059-0.11845 0.1999-0.11845 0.3256 0 0.126-0.05921 0.2889-0.12592 0.3704-0.09623 0.1038-0.1333 0.2666-0.1333 0.6148 0 0.4367-0.01483 0.4812-0.28143 0.7551-0.18494 0.185-0.27387 0.3479-0.27387 0.4885 0 0.1113-0.08143 0.3113-0.17767 0.437-0.09646 0.1333-0.30356 0.4888-0.45172 0.7923-0.15544 0.3037-0.39984 0.6887-0.5553 0.8515-0.14814 0.1704-0.45929 0.5925-0.69614 0.9404-0.2814 0.4371-0.6516 0.8516-1.1328 1.2959-0.39251 0.3555-0.90346 0.8367-1.1405 1.0662-0.22936 0.2295-0.62921 0.5405-0.89581 0.6887-1.0367 0.5775-3.6357 1.6068-5.4276 2.1549-0.79968 0.2444-0.97003 0.2666-2.1399 0.3108-0.69604 0.0222-1.4809 0.0445-1.7475 0.0371-0.87374-0.0149-2.0807-0.1479-2.1918-0.2444-0.07396-0.059-0.35534-0.1035-0.76262-0.1035-0.63684-0.0149-1.1921-0.1335-1.1921-0.2666 0-0.0371-0.39246-0.2519-0.86634-0.4814-1.081-0.511-1.7031-0.9182-1.9623-1.2959-0.12579-0.1777-0.26654-0.2886-0.35534-0.2886-0.08155 0-0.29621-0.1335-0.474-0.2964-0.17768-0.1628-0.37012-0.2961-0.43678-0.2961-0.05925 0-0.17778-0.1184-0.2666-0.2591-0.08147-0.1481-0.26653-0.3332-0.40728-0.4147-0.14068-0.0816-0.34057-0.2593-0.44422-0.3924-0.1037-0.1482-0.43694-0.3777-0.79235-0.5627-0.33313-0.1704-0.70343-0.4072-0.82185-0.5259-0.11858-0.1111-0.31102-0.2295-0.4295-0.2517-0.11852-0.0222-0.2666-0.126-0.3258-0.2295-0.06665-0.0964-0.18512-0.1777-0.25922-0.1777-0.07403 0-0.25164-0.1333-0.39978-0.2962-0.14074-0.1628-0.30365-0.2961-0.35546-0.2961-0.22211 0-0.75531 0.333-1.0515 0.6662-1.4291 1.5847-2.1621 5.4129-2.5843 13.402-0.13324 2.5027-0.12572 16.142 0.00758 21.103 0.05175 2.0586 0.10363 3.7466 0.11108 3.7541 0.01477 0.0222 0.95514 0.1851 1.081 0.1851 0.05927 0 0.37763-0.0222 0.70337-0.052 0.4665-0.0442 0.66647-0.0296 0.95517 0.0666 0.3999 0.1409 1.7105 0.1704 8.0414 0.2221 2.4954 0.0224 3.3469 0.052 3.5024 0.1186 0.1629 0.0816 0.35546 0.0816 0.9626 0.0147 0.548-0.0591 0.90336-0.0591 1.3033 0 0.41454 0.0595 0.65904 0.0595 1.0514-0.0147 0.5406-0.1035 1.3476-0.0591 1.5253 0.0816 0.0741 0.0664 0.20736 0.0593 0.54059-0.0074 0.29617-0.0595 0.65897-0.0742 1.1255-0.0371 0.3776 0.0296 0.90334 0.0445 1.1699 0.0296 0.57756-0.0222 1.0366-0.0149 3.4432 0.0371 1.829 0.0442 3.3024-0.0222 4.1243-0.1851 0.3333-0.0669 0.45177-0.0669 0.54064 0.0076 0.05926 0.0515 0.18499 0.0737 0.28126 0.0444 0.10375-0.0224 0.23705 0 0.31847 0.0589 0.07403 0.0595 0.22217 0.0891 0.32573 0.0742 0.1038-0.0222 0.7702-0.0444 1.481-0.0593s1.4513-0.0518 1.644-0.0813c0.32565-0.052 0.36279-0.0369 0.5553 0.1701 0.20721 0.2222 0.20721 0.2222 0.8736 0.1851 0.67395-0.0369 1.4884-0.0369 2.2956-0.0073l0.43687 0.0224 0.59979-2.0735c1.5178-5.2351 3.2356-10.13 5.4569-15.55 3.8134-9.3373 15.898-28.012 33.965-52.499 2.3471-3.1838 5.1165-8.3226 7.2268-13.402 1.7327-4.1614 3.2655-9.0114 4.3687-13.773 0.31844-1.3772 0.92564-4.3686 0.92564-4.5611 0-0.1333-0.11863-0.1333-2.2288-0.10367-1.4587 0.0148-2.3547 0.05923-2.5918 0.11844-0.31824 0.08156-0.39233 0.08156-0.56994-0.02224-0.13331-0.0814-0.24436-0.1036-0.31092-0.0593-0.05944 0.0372-0.14081 0.04455-0.17779 0.0149-0.04435-0.0222-1.0588-0.0518-2.2658-0.0592-1.5919-0.00734-2.2361-0.037-2.362-0.10365-0.14065-0.0741-0.34066-0.0741-1.0071 0-0.45905 0.05175-0.97736 0.07395-1.1552 0.04445-0.1776-0.0297-0.3923-0.05935-0.4739-0.05935-1.1328 0.00755-2.1843-0.00735-2.9988-0.02955-0.54794-0.01476-1.9844-0.0371-3.1988-0.05187-2.0215-0.01477-2.2066-0.02953-2.3472-0.15539-0.1408-0.12584-0.1852-0.1333-0.50365-0.03714-0.19985 0.0519-0.63675 0.09634-0.98485 0.09634-0.6886 0.00746-2.4954-0.2074-2.8507-0.3407-0.15544-0.05174-0.44424-0.0592-0.88864-0.01474-0.3701 0.03696-0.7848 0.0444-0.92545 0.01474-0.14081-0.02954-0.59255-0.10364-0.9997-0.17029s-0.96255-0.17028-1.229-0.22949c-0.28157-0.05906-0.6147-0.08876-0.785-0.05906-0.2296 0.03685-0.30363 0.0221-0.3406-0.0667-0.0444-0.1258-0.4813-0.274-0.8071-0.274-0.10375 0-0.29625-0.08144-0.41466-0.1851-0.12598-0.1036-0.31094-0.18516-0.41467-0.18516-0.25177 0-0.69597-0.22949-0.93297-0.48134-0.1482-0.1556-0.2296-0.18516-0.40724-0.1556-0.27386 0.05186-0.34796 0-0.51096-0.31106-0.0665-0.13317-0.1998-0.2738-0.29623-0.31091-0.08877-0.02966-0.22207-0.14807-0.29607-0.25913-0.0668-0.10366-0.274-0.2592-0.4518-0.33315-0.3777-0.16295-0.48126-0.29625-0.74054-0.98485-0.22196-0.59975-0.22946-0.8219-0.03696-1.0662 0.1481-0.19263 0.16294-0.28882 0.1481-1.2588 0-0.4369 0.0075-0.46646 0.2222-0.57767 0.17765-0.09606 0.222-0.16283 0.222-0.37023 0-0.33313 0.1186-0.62195 0.34817-0.8662 0.15543-0.16286 0.17763-0.2444 0.14063-0.4518-0.03706-0.2146-0.0222-0.2814 0.1257-0.3998 0.09646-0.0741 0.3112-0.35545 0.47396-0.6294 0.16294-0.2667 0.51849-0.7552 0.77774-1.0812 0.2663-0.32568 0.5256-0.71055 0.5699-0.85132 0.0519-0.15553 0.22225-0.37023 0.42226-0.53308 0.22204-0.18515 0.3258-0.3258 0.3258-0.45178 0-0.23697 0.4961-0.77002 0.9181-0.99951 0.19984-0.10376 0.34794-0.24436 0.37768-0.3407 0.02222-0.08886 0.22206-0.37026 0.45172-0.6294 0.54044-0.61462 1.2736-2.0658 1.355-2.6804 0.0519-0.3999 0.08875-0.46654 0.385-0.71838l0.32576-0.27393-0.09626-0.34057c-0.1184-0.45911-0.1111-0.71826 0.03705-1.007 0.11109-0.23706 0.11109-0.2814 0-0.73315-0.1408-0.54795-0.16275-0.98475-0.05185-1.1922 0.037-0.0741 0.0741-0.3999 0.0814-0.71825 0.0075-0.52575-0.02955-0.6886-0.41456-1.7624-0.82184-2.3027-1.8067-4.6205-2.0288-4.7388-0.2961-0.16295-0.94784-0.62205-1.0441-0.7406-0.05926-0.07395-0.2074-0.31835-0.3331-0.54785-0.1779-0.3258-0.2963-0.45167-0.58504-0.6072-0.22956-0.1185-0.41466-0.2815-0.50342-0.4443-0.20004-0.3777-0.34064-0.4518-0.72584-0.40004-0.2739 0.03711-0.3775 0.01489-0.54046-0.11096-0.10358-0.08155-0.37034-0.1852-0.58504-0.2222-0.5256-0.0814-0.61454-0.1258-0.7034-0.31833-0.0593-0.11107-0.21473-0.19997-0.53315-0.29627-0.24421-0.06665-1.0218-0.3406-1.7252-0.5997l-1.2812-0.46646-1.4067-0.03711c-0.7702-0.01477-1.9919-0.00743-2.7027 0.01487z"/> <path d="m487.36 1003.9c-0.02227 0.01477-2.399 0.052-5.2942 0.08153-2.8878 0.0297-5.5758 0.0668-5.9608 0.08155-0.38496 0.01475-2.2362 0.05188-4.1096 0.0741-5.6646 0.06655-11.633 0.19238-14.032 0.29602-1.3624 0.05923-1.8658 0.11853-2.2214 0.25913-0.34064 0.1333-1.0884 0.29617-2.947 0.6294-1.2069 0.21474-1.7326 0.3778-2.2288 0.6962-0.19245 0.12584-0.4591 0.2517-0.58495 0.2739-0.13325 0.0297-0.23688 0.0741-0.23688 0.10365 0 0.02222-0.10376 0.19995-0.22962 0.39245-0.42206 0.63685-0.47388 1.7698-0.09625 2.177 0.09625 0.10365 0.17779 0.2444 0.17779 0.31837 0 0.06663 0.09626 0.19253 0.22211 0.28137 0.15552 0.11853 0.25171 0.29626 0.37018 0.6665 0.08142 0.28126 0.22217 0.57019 0.30365 0.65149 0.08882 0.07407 0.37024 0.45923 0.62195 0.84427 0.25177 0.385 0.5849 0.82175 0.73297 0.95505 0.14813 0.14065 0.2666 0.30359 0.2666 0.35545 0 0.0592 0.148 0.25905 0.3258 0.45156 0.18513 0.19264 0.3554 0.45178 0.38502 0.57019 0.02966 0.12595 0.42205 0.59975 0.99218 1.1997 0.859 0.90335 0.9701 1.0512 1.2144 1.6362 0.15546 0.3556 0.44434 0.94786 0.63684 1.3254 0.37764 0.70364 0.51831 1.1552 0.66632 2.0957 0.04456 0.3035 0.15552 0.7034 0.24439 0.88845 0.14813 0.30359 0.1629 0.45165 0.1629 1.666 0 1.1256-0.02217 1.3699-0.1333 1.555-0.07397 0.1406-0.12587 0.3776-0.12587 0.6367 0 0.6147-0.19994 1.5698-0.48137 2.2881-0.13323 0.3479-0.25909 0.77-0.2887 0.9477-0.14063 0.9405-1.0588 2.9917-1.392 3.0952-0.0741 0.0223-0.1925 0.1778-0.2666 0.3479-0.3036 0.6739-1.5846 2.0884-2.1547 2.3846-0.18512 0.0961-0.59235 0.3923-0.89594 0.6662-0.30364 0.2666-0.77014 0.5925-1.0367 0.7183-0.26654 0.126-0.65155 0.3557-0.8589 0.5183-0.20738 0.1555-0.5775 0.3628-0.81456 0.4592-0.24434 0.0962-0.75519 0.3257-1.1403 0.511-0.38501 0.1851-0.88116 0.3701-1.0959 0.4219-0.2962 0.0669-0.4369 0.1482-0.57758 0.3332-0.25177 0.3333-0.52576 0.3926-2.4954 0.5259-2.91 0.2073-5.5683 0.0591-6.0052-0.3259-0.22217-0.2-0.49609-0.2888-1.3699-0.4666-0.42206-0.0815-0.85895-0.1924-0.9626-0.2441-0.10363-0.0593-0.59234-0.2444-1.081-0.4147-1.0515-0.3703-1.3772-0.5405-1.5845-0.822-0.08892-0.1184-0.22217-0.2148-0.28882-0.2148-0.37762 0-2.8804-1.9102-3.5098-2.6805-0.14063-0.1777-0.40723-0.5551-0.59235-0.8366-0.18513-0.2888-0.42206-0.5701-0.53313-0.6292-0.11848-0.0596-0.22212-0.1853-0.2444-0.3113-0.02215-0.1111-0.1184-0.2888-0.20733-0.385-0.31097-0.3332-0.45905-0.5996-0.65161-1.1328-0.11103-0.2961-0.28876-0.7258-0.40723-0.9626-0.26653-0.5257-0.43683-1.2515-0.82929-3.4654-0.32586-1.8733-0.34802-2.1696-0.1925-2.6138 0.0592-0.1703 0.17766-0.85156 0.26654-1.5254 0.15546-1.2588 0.31842-1.8956 0.7627-3.0286 0.25915-0.6737 0.54792-1.1106 1.6734-2.5841 0.36285-0.474 0.78492-1.0737 0.93298-1.3329 0.14814-0.25915 0.49614-0.77015 0.77008-1.133 0.60724-0.8071 0.84418-1.1774 1.6216-2.525 0.90339-1.5549 0.94042-1.6512 0.94042-2.4362 0-0.59229-0.0222-0.70337-0.19994-0.99964-0.1925-0.3331-0.3258-0.4369-0.76263-0.59216-0.11847-0.04454-0.44433-0.21494-0.71088-0.37769-0.62201-0.37025-1.0885-0.46655-3.0656-0.62205-1.629-0.1259-2.5101-0.2592-2.7915-0.422-0.13337-0.0741-0.9256-0.0963-3.6506-0.09645-2.9766 0-11.61 0.09645-12.403 0.14075-0.1406 0.00744-0.8219 0.02234-1.5106 0.02966l-1.2513 0.01477 0.05182 0.42212c0.07404 0.64415 0.53311 3.0064 0.8663 4.4206 0.82934 3.5691 1.6661 6.1163 3.3247 10.115 2.6287 6.3456 4.8722 10.87 6.9529 14.039 0.34808 0.5332 6.2199 8.56 13.04 17.83 9.3594 12.721 12.551 17.12 13.017 17.912 1.9844 3.3764 4.6649 8.2783 7.7897 14.232 2.4435 4.6645 5.946 13.735 7.9601 20.622 0.2295 0.7922 0.4516 1.518 0.48866 1.614 0.05927 0.1631 0.08148 0.1631 1.007 0.126 0.52582-0.0222 2.9841-0.074 5.4647-0.1109 2.488-0.0446 6.1829-0.1112 8.2192-0.148 2.0362-0.0445 6.1828-0.126 9.2187-0.1853 6.3829-0.1258 10.803-0.2518 11.699-0.3184l0.62939-0.0518-0.02227-1.1106c-0.01478-0.6147-0.05176-2.2585-0.0962-3.6655-0.11853-4.5317-0.16302-14.772-0.07416-17.845 0.11854-4.1318 0.3036-7.064 0.56275-9.2482 0.11853-0.9331 0.1037-1.2365-0.02215-0.6591-0.05927 0.2741-0.0741 0.1999-0.08143-0.5332-0.0075-1.4068 0.20728-2.8357 0.49603-3.2581 0.0741-0.1035 0.17042-0.4219 0.22217-0.7107 0.04443-0.2888 0.14808-0.6665 0.22956-0.8516l0.14807-0.3256v0.3774c0.00738 0.2593-0.08142 0.6294-0.28882 1.207-0.1629 0.4593-0.29608 0.9627-0.29608 1.1328 0 0.4666 0.11096 0.2593 0.29608-0.57 0.28882-1.2737 0.8811-2.8064 1.3477-3.4654 0.20733-0.2961 0.05182-0.2443-0.30359 0.0962-0.16297 0.1629-0.30359 0.2815-0.30359 0.2517 0-0.1035 0.26654-0.5478 0.52576-0.8589 0.15551-0.185 0.3258-0.4218 0.37023-0.5183 0.04438-0.1037 0.29621-0.311 0.57013-0.4665 0.27399-0.1555 0.62202-0.3777 0.77008-0.4961 0.34806-0.2664 0.91074-0.3777 1.8289-0.3406 0.6294 0.0222 0.74043 0.0518 0.99965 0.2295 0.15552 0.1111 0.45165 0.252 0.64415 0.3037 0.896 0.2666 3.1322 1.6289 4.7687 2.895 0.2813 0.2225 0.7108 0.511 0.94774 0.637 0.23694 0.1257 0.74048 0.4961 1.1107 0.8147 0.3777 0.3257 0.7627 0.6069 0.8664 0.6294 0.10357 0.0222 0.46642 0.1553 0.79968 0.2961 0.81452 0.3406 1.5328 0.5259 2.7916 0.7034 1.5921 0.2222 2.4509 0.2517 3.5173 0.1111 1.74-0.2295 2.3472-0.385 3.9614-0.9922 0.32576-0.1185 0.72556-0.2594 0.88846-0.3112 0.16293-0.0517 0.4073-0.185 0.5332-0.3034 0.1333-0.1111 0.3628-0.2371 0.5109-0.2815 0.29614-0.0816 0.548-0.2739 0.548-0.4221 0-0.0518 0.1184-0.1629 0.2591-0.2518 0.3258-0.1999 1.1774-1.1328 1.3328-1.4587 0.06665-0.1333 0.28131-0.4294 0.48125-0.6589 0.20735-0.2371 0.3703-0.4517 0.3703-0.4961 0-0.0371 0.1629-0.2739 0.36287-0.5259 0.41453-0.5256 0.55529-0.77 0.67373-1.229 0.04435-0.1853 0.1703-0.4814 0.2814-0.6665 0.1111-0.1924 0.2148-0.511 0.2444-0.7627 0.0296-0.2368 0.10357-0.4885 0.1628-0.5554 0.0593-0.0667 0.1481-0.3923 0.1926-0.718 0.05176-0.326 0.1185-0.8296 0.16284-1.1109 0.03706-0.2888 0.12596-0.5924 0.18526-0.6883 0.34794-0.5335 0.28135-3.3174-0.08895-3.732-0.14815-0.1557-0.21472-0.4665-0.36279-1.6513-0.07406-0.6148-0.17026-1.0664-0.25922-1.2442-0.08144-0.1552-0.14794-0.3923-0.14794-0.5256 0-0.3108-0.17035-0.8145-0.37037-1.0588-0.08133-0.1038-0.14813-0.2593-0.14813-0.3482 0-0.207-0.1925-0.5034-0.6885-1.0808-0.237-0.2666-0.45914-0.5999-0.51096-0.7405-0.04444-0.1408-0.22211-0.4148-0.3999-0.6147-0.17024-0.1924-0.41454-0.533-0.54044-0.7551-0.126-0.2224-0.28146-0.4073-0.348-0.4073-0.05926 0-0.163-0.1186-0.2222-0.2593-0.06655-0.1704-0.1925-0.2963-0.348-0.3554-0.12596-0.0591-0.38505-0.2295-0.5702-0.385-0.42954-0.3555-2.3398-1.2884-3.3321-1.6216-0.4295-0.1482-1.2293-0.3482-1.7772-0.4443-0.5479-0.1036-1.3401-0.2889-1.7549-0.4146-0.41467-0.1187-0.81457-0.2222-0.88116-0.2222-0.06657 0-0.62934 0.148-1.244 0.3257-1.133 0.3333-1.6216 0.4444-2.3251 0.5259-0.51832 0.0591-0.97742 0.2368-1.1774 0.4517-0.08881 0.0961-0.34047 0.2443-0.5553 0.3256-0.70343 0.2591-1.2884 0.6812-2.4879 1.792-0.34057 0.3184-0.79235 0.6514-0.99963 0.7552-0.21472 0.1037-0.65155 0.4221-0.97742 0.7182-0.88855 0.7923-2.4657 1.8512-3.2728 2.192-0.14814 0.0594-0.48134 0.2442-0.74054 0.407-0.40723 0.2593-0.57007 0.3113-1.1107 0.3777-0.94781 0.1184-1.629 0-2.3473-0.3997-0.59231-0.3332-0.78482-0.5036-1.3772-1.1921-0.28882-0.3408-0.3999-0.5554-0.55536-1.0591-0.13324-0.4292-0.2666-0.7107-0.41466-0.8589-0.12586-0.133-0.21473-0.3034-0.21473-0.4221 0-0.1108-0.08881-0.3701-0.18512-0.57-0.1037-0.2073-0.18512-0.5035-0.18512-0.6739 0-0.3406-0.12585-0.77-0.22955-0.77-0.22948 0-0.51838-1.2512-0.65906-2.8508-0.12585-1.4588-0.34058-9.6485-0.55536-21.51-0.22211-12.492-0.32574-15.935-0.46649-16.475-0.11097-0.4146-0.21472-0.422-3.3024-0.45913-1.555-0.02207-2.8361-0.02207-2.8582 0z"/> </g> <g> <path d="m495.56 1071.1c-0.02954 0.0222-0.05175 0.1702-0.05175 0.3184s-0.05187 0.3332-0.11109 0.4148c-0.11108 0.1479-0.1333 0.4219-0.04443 0.6516 0.03699 0.0962 0.09625-0.1038 0.18512-0.6221 0.11853-0.7405 0.12585-0.8664 0.02215-0.7627z"/> </g> <g fill="#3c464f"> <path d="m495.98 1113c-13.787 0.0442-27.153 0.0889-29.707 0.0963l-4.6501 0.0073v0.2368c0 0.126 0.13324 0.9182 0.29614 1.7549 0.5331 2.7692 0.97736 5.8495 1.207 8.3746l0.08886 0.9995 7.6268-0.0217c33.424-0.0892 60.126-0.178 60.148-0.2002 0.00733-0.0073 0-2.5696-0.0296-5.6941l-0.05174-5.672-4.9315 0.0147c-2.7101 0.0075-16.209 0.052-29.996 0.1039z"/> <path d="m501.68 1136.1c-13.787 0.0444-28.441 0.0887-32.558 0.0963l-7.5008 0.0071v5.7756 5.7759h4.1318c8.656-0.0075 65.19-0.2146 65.22-0.2444 0.01485-0.0147 0.00751-2.6138-0.02209-5.7759l-0.0445-5.7532-2.0808 0.0147c-1.1476 0.0076-13.358 0.0521-27.145 0.1039z"/> </g> <g fill="#3b5154"> <path d="m565.53 1204.8-0.5223 5.607q-4.0574 16.982-24.823 27.44-20.91 10.451-49.481 8.963-27.28-2.2689-43.806-15.015-5.2958-4.1211-8.7577-9.022l-2.9238-5.0486q-2.425-5.2193-2.5372-10.932 0.44927-17.542 19.018-29.464 18.569-11.922 46.789-12.788 28.233 0.0194 47.151 11.379 18.918 11.359 19.893 28.88"/> </g> <g fill="#dd8b42"> <path d="m472.49 1084.9q0.25598-0.3147 0.38378-0.5664 1.3083-1.8997 0.0563-3.9655-0.7666-1.5195-6.0085-5.0544l-0.03167-0.4881q-0.2162-3.9428-1.4169-4.9587-1.2429-1.2385-4.2184-1.9939-2.7455-3.5383-5.1014-4.5666-1.5392-0.5882-3.2538-0.3694-1.15 0.0403-4.7446 1.1183-2.6799-0.3064-3.8164-0.0513-1.3442 0.2817-1.9922 0.6902-1.2988 0.7856-2.4375 2.1853-1.9559 2.4043-3.439 6.6201-2.5878 6.7363-6.5134 21.966l16.74 13.137 6.6037-8.1409 6.7258-0.4326q3.1415-6.9621 4.8917-9.113 0.1283-0.1577 0.24916-0.2896 0.88207-1.0241 1.7805-1.6557 3.8531-2.3323 4.0357-2.5567 0.01984-0.0244-0.00421-0.0239 1.0059-0.8694 1.5116-1.4907z"/> </g> <g fill="#f7faff"> <path d="m428.85 1092.6 9.4585 7.3976 9.459 7.3972q-2.9036 3.7124-5.8074 7.4253-9.4589-7.3966-18.918-14.794 2.9038-3.7124 5.8074-7.426z"/> </g> <g fill="#3b5154"> <path d="m448.6 1115.1-0.32434 0.3279q-17.91 18.965-13.344 45.29 2.5045 12.28 10.806 22.259 7.2346 8.392 16.675 12.889l-22.621 24.805q-11.014-7.0487-19.05-16.581l-6.2512-8.4185-5.0678-9.0158-3.8709-9.4917-2.6603-9.8437-1.4358-10.074-0.1977-10.181 1.054-10.165 2.3194-10.027 3.5988-9.7659 4.892-9.3823q7.2952-10.984 10.204-13.533l25.275 20.909z"/> </g> <g fill="#dd8b42"> <path d="m536.72 1202.5-0.2297 4.3957q-1.9012 13.302-11.973 21.412-10.142 8.1045-24.07 6.81-13.303-1.9013-21.412-11.973-2.599-3.2558-4.3076-7.1159l-1.4471-3.9729q-1.2049-4.1043-1.285-8.5852 0.14081-13.758 9.1356-23.026 8.9945-9.2686 22.741-9.8218 13.757 0.141 23.025 9.1355 9.2686 8.9949 9.822 22.742"/> </g> <g> <path d="m503.05 1181.3q-0.27869 0.0041-0.42035 0.0979-0.11432-0.0481-0.26788-0.0457-0.98584 0.0147-3.583 2.1086-1.7253 1.7247-5.2786 7.2151-1.04 1.4756-2.1795 2.5901-0.55175 0.9903-3.6341 1.8384-0.34968 0.0769-0.74268 0.0828-3.7888 0.0567-11.599-6.5011-3.2589 6.6247-3.3431 14.857 0.08014 4.4809 1.285 8.5852l1.4471 3.9729q1.7087 3.8601 4.3076 7.1159 8.1094 10.072 21.412 11.973 2.2142 0.2051 4.3323 0.1734 11.208-0.1677 19.738-6.9834 10.072-8.1095 11.973-21.412l0.2297-4.3957q-0.42344-10.518-5.948-18.253-0.65726 1.4488-1.3586 2.742-1.7686 3.1045-4.2141 4.0635-0.50238 0.3027-1.2872 0.3144-1.4465 0.0217-3.8522-0.9445-1.6758-0.7841-3.4782-1.9538-6.4282-4.4507-9.0562-5.8162-3.3577-1.4411-4.482-1.4245z"/> </g> <g fill="#dd8b42"> <path d="m525.51 1084.1q-0.2654-0.3069-0.4006-0.554-1.3649-1.8601-0.1752-3.9626 0.72047-1.542 5.8541-5.2322l0.0169-0.4888q0.09803-3.9476 1.2677-4.9986 1.205-1.2754 4.1568-2.1194 2.6382-3.6192 4.9621-4.7178 1.521-0.634 3.2414-0.4668 1.1507 0.0056 4.776 0.9754 2.6693-0.3868 3.8131-0.1658 1.352 0.2414 2.0119 0.6306 1.3218 0.7461 2.502 2.1105 2.0272 2.3446 3.636 6.5138 2.7888 6.656 7.1692 21.761l-16.338 13.633-6.845-7.9394-6.7357-0.2304q-3.3489-6.8647-5.1625-8.9621-0.13294-0.1536-0.25776-0.282-0.91234-0.9973-1.8296-1.6018-3.9212-2.2158-4.1104-2.4343-0.0206-0.0237 0.0033-0.0237-1.0313-0.8391-1.5555-1.4453z"/> </g> <g fill="#f7faff"> <path d="m569.36 1090.5-9.2325 7.678-9.2328 7.6773q3.0134 3.6235 6.0272 7.248 9.2332-7.677 18.466-15.355-3.0136-3.6239-6.0274-7.2487z"/> </g> <g fill="#3b5154"> <path d="m550.29 1113.6 0.334 0.3181q18.471 18.419 14.697 44.869-2.1352 12.35-10.134 22.573-6.9796 8.6052-16.281 13.383l23.354 24.115q10.798-7.3759 18.544-17.145l5.996-8.6016 4.7951-9.1642 3.5845-9.6033 2.3642-9.919 1.133-10.112-0.1076-10.182-1.3582-10.129-2.6196-9.9533-3.89-9.6534-5.1709-9.231q-7.6216-10.761-10.605-13.222l-24.637 21.657z"/> </g> <g fill="#81c7c1"> <path d="m559.31 789.8-0.69031-5.589q-4.5648-16.853-25.635-26.683-21.214-9.8192-49.728-7.4757-27.2 3.0862-43.337 16.322-5.1699 4.2782-8.4833 9.2813l-2.771 5.1338q-2.2674 5.29-2.2082 11.003 0.97522 17.52 19.893 28.88 18.918 11.36 47.152 11.379 28.22-0.86572 46.789-12.788 18.569-11.922 19.018-29.464"/> </g> <g fill="#744019"> <path d="m469.9 912.36q0.2653 0.307 0.4007 0.55445 1.3647 1.8598 0.17497 3.962-0.72052 1.5422-5.8541 5.2325l-0.01691 0.4889q-0.09796 3.9474-1.2677 4.9988-1.205 1.2749-4.1569 2.1193-2.6381 3.6188-4.962 4.7175-1.5208 0.6339-3.2412 0.4669-1.1508-0.0056-4.776-0.9752-2.6695 0.3862-3.8131 0.1655-1.3521-0.2407-2.0121-0.63023-1.3217-0.74657-2.5019-2.111-2.027-2.3445-3.6361-6.5137-2.7887-6.6561-7.1691-21.761l16.338-13.634 6.8448 7.9393 6.7357 0.231q3.3489 6.8642 5.1628 8.9616 0.13283 0.15405 0.25769 0.28235 0.91217 0.9972 1.8293 1.6017 3.9213 2.2158 4.1105 2.4342 0.02063 0.02404-0.00329 0.0239 1.0314 0.8391 1.5557 1.4452z"/> </g> <g fill="#fff"> <path d="m426.06 906.05 9.2325-7.6781 9.2327-7.6773q-3.0135-3.6237-6.0272-7.248-9.233 7.6768-18.465 15.355 3.0136 3.6235 6.0274 7.2484z"/> </g> <g fill="#81c7c1"> <path d="m445.12 882.93-0.33406-0.31797q-18.47-18.419-14.696-44.869 2.1353-12.35 10.133-22.574 6.9796-8.6051 16.281-13.383l-23.354-24.115q-10.798 7.3761-18.544 17.145l-5.9958 8.6019-4.7955 9.1637-3.5845 9.6037-2.3637 9.9193-1.133 10.112 0.10748 10.182 1.3584 10.129 2.6194 9.9527 3.89 9.6535 5.1712 9.2313q7.6212 10.761 10.605 13.221l24.637-21.657z"/> </g> <g fill="#744019"> <path d="m530.58 792.89-0.3614-4.3871q-2.2994-13.24-12.61-21.044-10.381-7.7961-24.264-6.085-13.24 2.2991-21.044 12.61-2.5 3.332-4.0924 7.2415l-1.3271 4.0146q-1.0815 4.1394-1.027 8.6205 0.55341 13.747 9.8219 22.742 9.2687 8.9945 23.026 9.1353 13.747-0.5531 22.741-9.822 8.9946-9.2684 9.1356-23.025"/> </g> <g> <path d="m497.55 815.16q-0.27868 0.00417-0.42297-0.0852-0.11279 0.0518-0.26648 0.05397-0.9859 0.01489-3.6446-2.0005-1.7764-1.672-5.4926-7.0532-1.0839-1.4441-2.2563-2.5239-0.58118-0.97327-3.6876-1.7284-0.35182-0.06629-0.7447-0.06054-3.7889 0.05675-11.399 6.8458-3.4558-6.5239-3.7868-14.75-0.05444-4.4811 1.027-8.6205l1.3271-4.0146q1.5924-3.9094 4.0924-7.2415 7.8039-10.31 21.044-12.61 2.2069-0.27195 4.3253-0.3038 11.208-0.16804 19.938 6.3888 10.31 7.8042 12.61 21.044l0.3614 4.3871q-0.1079 10.525-5.3982 18.423-0.70036-1.4283-1.4401-2.7001-1.8609-3.0497-4.3339-3.935-0.51123-0.2875-1.2961-0.2758-1.4465 0.02176-3.8223 1.0595-1.6515 0.83411-3.4181 2.0576-6.2919 4.641-8.8777 6.0843-3.3128 1.5418-4.4373 1.5584z"/> </g> <g fill="#744019"> <path d="m522.93 911.57q-0.2561 0.31456-0.3838 0.56606-1.3082 1.8999-0.05614 3.9659 0.76654 1.5196 6.0085 5.0544l0.03161 0.48805q0.21619 3.9426 1.4169 4.9585 1.2428 1.2385 4.2184 1.9937 2.7456 3.5383 5.1014 4.5666 1.5392 0.58836 3.2539 0.36973 1.1499-0.04013 4.7445-1.1183 2.6797 0.30615 3.8163 0.05125 1.3443-0.28123 1.9921-0.6903 1.299-0.7854 2.4376-2.185 1.9558-2.404 3.439-6.6198 2.5881-6.7369 6.5133-21.967l-16.74-13.138-6.6037 8.1411-6.7259 0.43264q-3.1416 6.9619-4.8917 9.1131-0.1282 0.1577-0.2492 0.2898-0.8818 1.0239-1.7806 1.6557-3.853 2.3325-4.0356 2.5567-0.01985 0.0244 0.00414 0.02365-1.0057 0.86925-1.5115 1.4911z"/> </g> <g fill="#fff"> <path d="m566.56 903.94-9.4586-7.3977-9.4588-7.3972q2.9035-3.7126 5.8073-7.4254 9.4591 7.3966 18.918 14.794-2.9039 3.7125-5.8075 7.4263z"/> </g> <g fill="#81c7c1"> <path d="m546.81 881.4 0.32434-0.328q17.91-18.964 13.345-45.29-2.5048-12.281-10.806-22.26-7.2342-8.3918-16.674-12.889l22.621-24.804q11.014 7.0488 19.05 16.581l6.251 8.4186 5.0676 9.0156 3.8709 9.4917 2.6606 9.8443 1.4358 10.074 0.19781 10.181-1.054 10.165-2.3198 10.027-3.5989 9.7656-4.8919 9.3823q-7.2954 10.985-10.204 13.534l-25.275-20.908z"/> </g> <g> <path d="m291.19 1066.1-5.6071-0.5227q-16.983-4.0573-27.439-24.822-10.451-20.91-8.9636-49.481 2.2689-27.28 15.015-43.807 4.1209-5.2956 9.0222-8.7576l5.0484-2.9238q5.2196-2.425 10.932-2.537 17.542 0.44925 29.464 19.018 11.922 18.569 12.788 46.789-0.01892 28.234-11.379 47.152-11.36 18.918-28.881 19.893"/> </g> <g fill="#ffab8c"> <path d="m411.02 973.03q0.3147 0.25586 0.56605 0.38366 1.8997 1.3085 3.9658 0.05664 1.5196-0.7669 5.0542-6.0087l0.48822-0.03164q3.9429-0.21606 4.9586-1.4168 1.2383-1.2428 1.9935-4.2186 3.5382-2.7455 4.5667-5.1013 0.58814-1.5392 0.36951-3.2539-0.0401-1.15-1.1182-4.7446 0.3063-2.6792 0.0514-3.8158-0.28137-1.3442-0.69036-1.9922-0.78559-1.2988-2.185-2.4375-2.4044-1.9562-6.6198-3.4391-6.7368-2.5883-21.967-6.5139l-13.138 16.74 8.1412 6.6042 0.43262 6.7259q6.9622 3.1413 9.1129 4.8913 0.1579 0.1283 0.28998 0.24924 1.024 0.88174 1.6559 1.7804 2.3322 3.8534 2.5563 4.0359 0.02453 0.01954 0.02386-0.00414 0.8694 1.006 1.4912 1.5115z"/> </g> <g fill="#fff"> <path d="m403.39 929.4-14.795 18.917q-3.7125-2.9032-7.4252-5.8068 7.3967-9.4592 14.794-18.918 3.7124 2.9042 7.4261 5.8076z"/> </g> <g> <path d="m380.86 949.15-0.32807-0.3245q-18.964-17.91-45.29-13.344-12.28 2.5043-22.26 10.805-8.392 7.2346-12.889 16.675l-24.805-22.621q7.0489-11.014 16.581-19.05l8.4183-6.2512 9.0162-5.0678 9.4917-3.8705 9.8439-2.6604 10.074-1.4359 10.181-0.19806 10.165 1.0541 10.027 2.3198 9.7656 3.5988 9.3824 4.8918q10.984 7.2952 13.533 10.204l-20.908 25.275z"/> </g> <g fill="#ffab8c"> <path d="m293.42 1037.3-4.3958-0.2297q-13.302-1.9012-21.412-11.973-8.1042-10.142-6.8102-24.07 1.9014-13.303 11.973-21.412 3.2559-2.5985 7.1158-4.3074l3.9728-1.4471q4.1049-1.205 8.5858-1.2849 13.757 0.14099 23.026 9.1357 9.2686 8.9944 9.8218 22.741-0.14069 13.757-9.1354 23.026-8.9946 9.2683-22.741 9.8219"/> </g> <g fill="#612115"> <path d="m314.69 1003.6q-0.00409-0.27904-0.0979-0.42015 0.04809-0.11425 0.04587-0.26795-0.01483-0.98596-2.1088-3.5832-1.7246-1.7254-7.2147-5.2783-1.4762-1.0403-2.5906-2.1796-0.99029-0.55213-1.8381-3.6344-0.07697-0.34961-0.08289-0.74257-0.05688-3.7888 6.5011-11.599-6.6247-3.2587-14.856-3.343-4.4809 0.07994-8.5858 1.2849l-3.9728 1.4471q-3.8599 1.7089-7.1158 4.3074-10.072 8.1096-11.973 21.412-0.20569 2.2141-0.17389 4.3324 0.16809 11.208 6.9841 19.738 8.1096 10.072 21.412 11.973l4.3958 0.2297q10.517-0.4232 18.253-5.9481-1.4488-0.6571-2.742-1.3586-3.1043-1.7685-4.0635-4.2138-0.3027-0.5027-0.3144-1.2874-0.02173-1.4464 0.94464-3.8523 0.78386-1.6759 1.9539-3.4782 4.4505-6.4284 5.8154-9.0562 1.4418-3.3578 1.4248-4.482z"/> </g> <g fill="#ffab8c"> <path d="m411.82 1026.1q0.30688-0.2656 0.55426-0.4009 1.8598-1.3647 3.9624-0.175 1.542 0.7206 5.2321 5.8541l0.48895 0.0173q3.9476 0.0974 4.999 1.2676 1.2751 1.2048 2.1192 4.157 3.6191 2.6379 4.7177 4.9619 0.63404 1.5209 0.46686 3.2413-0.00561 1.1507-0.97528 4.776 0.3866 2.6695 0.16559 3.813-0.24091 1.3521-0.63037 2.012-0.74634 1.3218-2.111 2.5019-2.3444 2.027-6.5137 3.6362-6.6561 2.7885-21.761 7.1688l-13.634-16.338 7.9395-6.845 0.23077-6.7358q6.8644-3.3493 8.9619-5.1628 0.15388-0.1333 0.28216-0.2578 0.99707-0.9126 1.6018-1.8296 2.2157-3.921 2.4344-4.11 0.02385-0.0207 0.02385 3e-3 0.83875-1.031 1.445-1.5552z"/> </g> <g fill="#fff"> <path d="m405.5 1069.9-7.6779-9.2324-7.6774-9.2325q-3.6238 3.0136-7.248 6.0273 7.6768 9.233 15.355 18.465 3.6238-3.0136 7.2487-6.0278z"/> </g> <g> <path d="m382.38 1050.8-0.31825 0.3337q-18.419 18.47-44.869 14.697-12.35-2.1355-22.574-10.134-8.6049-6.9795-13.383-16.28l-24.115 23.354q7.3761 10.798 17.145 18.545l8.602 5.9956 9.164 4.7955 9.6034 3.5842 9.9192 2.3642 10.112 1.1333 10.182-0.1082 10.129-1.3581 9.9529-2.6195 9.6535-3.8897 9.2312-5.1711q10.761-7.6214 13.221-10.605l-21.657-24.636z"/> </g> <g fill="#3f132b"> <path d="m706.16 1059.9 5.5891-0.69q16.853-4.565 26.683-25.634 9.8192-21.214 7.4759-49.727-3.0862-27.2-16.322-43.337-4.2778-5.1695-9.2807-8.4829l-5.1339-2.7711q-5.29-2.2673-11.003-2.2081-17.52 0.97537-28.88 19.893-11.36 18.918-11.379 47.151 0.8659 28.22 12.788 46.789 11.922 18.569 29.464 19.018"/> </g> <g fill="#c49069"> <path d="m583.6 970.44q-0.30682 0.26565-0.55402 0.401-1.8598 1.3644-3.9626 0.17505-1.5421-0.7208-5.2321-5.8544l-0.48895-0.01694q-3.9474-0.0979-4.9988-1.2676-1.2752-1.2052-2.1192-4.1571-3.619-2.6381-4.7176-4.9621-0.6344-1.521-0.4672-3.2414 0.0058-1.1509 0.9755-4.7758-0.3865-2.6691-0.1656-3.8128 0.2412-1.3517 0.6305-2.0119 0.7462-1.3218 2.1109-2.5019 2.3444-2.0273 6.5137-3.6357 6.656-2.7893 21.762-7.1696l13.634 16.338-7.9398 6.8445-0.23065 6.736q-6.8648 3.3486-8.962 5.1626-0.15406 0.13295-0.28222 0.2576-0.99708 0.91246-1.6017 1.8297-2.2156 3.9214-2.4342 4.1101-0.0239 0.0209-0.024-0.0032-0.8388 1.0313-1.4451 1.5554z"/> </g> <g fill="#fff"> <path d="m589.91 926.6 7.6781 9.2327 7.6774 9.2326q3.6236-3.0134 7.2477-6.0268-7.6767-9.2333-15.355-18.466-3.6238 3.0137-7.2487 6.0273z"/> </g> <g fill="#3f132b"> <path d="m613.03 945.66 0.31835-0.33385q18.419-18.471 44.869-14.696 12.35 2.1349 22.573 10.133 8.6052 6.9798 13.383 16.281l24.115-23.354q-7.3759-10.798-17.144-18.544l-8.602-5.9959-9.1642-4.7954-9.6034-3.5841-9.9192-2.3641-10.112-1.1327-10.182 0.10703-10.129 1.3583-9.9528 2.6193-9.6533 3.8899-9.2315 5.1715q-10.761 7.6211-13.221 10.604l21.657 24.637z"/> </g> <g fill="#c49069"> <path d="m703.07 1031.1 4.387-0.3611q13.239-2.2996 21.043-12.61 7.7967-10.38 6.0854-24.264-2.2992-13.239-12.609-21.043-3.3324-2.5001-7.2419-4.0925l-4.0142-1.3273q-4.1392-1.0813-8.6206-1.0265-13.746 0.55326-22.741 9.8216-8.9947 9.2684-9.1355 23.026 0.5532 13.747 9.8219 22.741 9.2686 8.9948 23.026 9.1353"/> </g> <g> <path d="m680.8 998.1q-0.0041-0.27854 0.0854-0.42297-0.0515-0.11277-0.0538-0.26647-0.0148-0.9856 2.0002-3.6448 1.672-1.7765 7.0535-5.492 1.4441-1.0841 2.5239-2.2564 0.9733-0.5813 1.7283-3.6878 0.06644-0.35153 0.0605-0.74463-0.05686-3.7886-6.8457-11.399 6.5241-3.4558 14.749-3.7868 4.4814-0.05484 8.6206 1.0265l4.0142 1.3273q3.9095 1.5924 7.2419 4.0925 10.31 7.8039 12.609 21.043 0.27197 2.207 0.3037 4.3252 0.1681 11.208-6.3891 19.938-7.8038 10.31-21.043 12.61l-4.387 0.3611q-10.525-0.1073-18.423-5.3979 1.4283-0.7006 2.7-1.4399 3.05-1.8609 3.9353-4.3339 0.28757-0.5115 0.2757-1.296-0.0217-1.4468-1.0595-3.8224-0.83426-1.6518-2.0576-3.418-4.6413-6.2923-6.0845-8.878-1.5417-3.3131-1.5587-4.4374z"/> </g> <g fill="#c49069"> <path d="m584.39 1023.5q-0.3147-0.25585-0.56592-0.38365-1.9001-1.3088-3.966-0.05666-1.5197 0.76646-5.0542 6.0086l-0.48828 0.0318q-3.9428 0.2158-4.9585 1.417-1.2384 1.2426-1.9936 4.2185-3.5383 2.7453-4.5668 5.1011-0.5882 1.5395-0.3696 3.2539 0.0401 1.1499 1.1183 4.7448-0.3064 2.6795-0.0513 3.816 0.2813 1.3444 0.6903 1.9921 0.7855 1.2989 2.185 2.4378 2.4041 1.956 6.6198 3.4391 6.7366 2.5876 21.967 6.5132l13.138-16.739-8.1412-6.604-0.43256-6.7258q-6.962-3.1418-9.1128-4.8917-0.15785-0.1282-0.2897-0.2493-1.024-0.8818-1.656-1.7807-2.3324-3.8531-2.5564-4.0354-0.0245-0.0201-0.0237 0.0039-0.86944-1.0058-1.4911-1.5114z"/> </g> <g fill="#fff"> <path d="m592.02 1067.1 7.3976-9.4577 7.3972-9.4593q3.7121 2.9035 7.4252 5.8073-7.3966 9.4591-14.794 18.918-3.7125-2.9038-7.426-5.8079z"/> </g> <g fill="#3f132b"> <path d="m614.56 1047.4 0.32786 0.3245q18.964 17.909 45.29 13.344 12.281-2.5045 22.26-10.806 8.3921-7.2339 12.889-16.674l24.804 22.62q-7.0488 11.014-16.581 19.05l-8.4182 6.2514-9.0161 5.0679-9.4917 3.8706-9.844 2.6601-10.074 1.4361-10.181 0.1975-10.165-1.0541-10.027-2.3196-9.7658-3.5986-9.3821-4.8918q-10.985-7.2954-13.534-10.204l20.909-25.275z"/> </g> </g> </svg>